<svg xmlns="http://www.w3.org/2000/svg" version="1.1" xmlns:xlink="http://www.w3.org/1999/xlink" width="1000" height="1000"><style>
    #light-icon {
      display: inline;
    }
    #dark-icon {
      display: none;
    }

    @media (prefers-color-scheme: dark) {
      #light-icon {
        display: none;
      }
      #dark-icon {
        display: inline;
      }
    }
  </style><g id="light-icon"><svg xmlns="http://www.w3.org/2000/svg" version="1.1" xmlns:xlink="http://www.w3.org/1999/xlink" width="1000" height="1000"><g clip-path="url(#SvgjsClipPath1125)"><rect width="1000" height="1000" fill="#ffffff"></rect><g transform="matrix(1.125,0,0,1.125,50,50)"><svg xmlns="http://www.w3.org/2000/svg" version="1.1" xmlns:xlink="http://www.w3.org/1999/xlink" width="800px" height="800px"><svg fill="#000000" width="800px" height="800px" viewBox="0 0 270.92 270.92" style="shape-rendering:geometricPrecision; text-rendering:geometricPrecision; image-rendering:optimizeQuality; fill-rule:evenodd; clip-rule:evenodd" version="1.1" xml:space="preserve" xmlns="http://www.w3.org/2000/svg" xmlns:xlink="http://www.w3.org/1999/xlink">

<defs>

<style type="text/css">
   
    .fil0 {fill:black;fill-rule:nonzero}
   
  </style>

<clipPath id="SvgjsClipPath1125"><rect width="1000" height="1000" x="0" y="0" rx="150" ry="150"></rect></clipPath></defs>

<g id="Layer_x0020_1">

<path class="fil0" d="M176.21 168.27c-18.09,0 -32.82,-14.72 -32.82,-32.82 0,-18.06 14.73,-32.79 32.82,-32.79l62.41 0 0 65.61 -62.41 0zm-1.07 -40.75c-4.37,0 -7.93,3.56 -7.93,7.93 0,4.39 3.56,7.93 7.93,7.93 4.37,0 7.93,-3.54 7.93,-7.93 0,-4.37 -3.56,-7.93 -7.93,-7.93zm43.31 -79.35l-166.76 0c-4.39,0 -7.93,3.56 -7.93,7.93 0,4.37 3.54,7.93 7.93,7.93l166.76 0c11.12,0 20.17,9.05 20.17,20.2l0 2.56 -62.41 0c-26.84,0 -48.69,21.82 -48.69,48.66 0,26.85 21.85,48.69 48.69,48.69l62.41 0 0 2.56c0,11.13 -9.05,20.18 -20.17,20.18l-165.99 0c-11.12,0 -20.17,-9.05 -20.17,-20.18l0 -103.26c0,-4.39 -3.55,-7.94 -7.93,-7.94 -4.39,0 -7.94,3.55 -7.94,7.94l0 103.26c0,19.89 16.17,36.05 36.04,36.05l165.99 0c19.87,0 36.05,-16.16 36.05,-36.05l0 -102.47c0,-19.9 -16.18,-36.06 -36.05,-36.06z"></path>

</g>

</svg></svg></g></g></svg></g><g id="dark-icon"><svg xmlns="http://www.w3.org/2000/svg" version="1.1" xmlns:xlink="http://www.w3.org/1999/xlink" width="1000" height="1000"><g clip-path="url(#SvgjsClipPath1126)"><rect width="1000" height="1000" fill="#ffffff"></rect><g transform="matrix(0.875,0,0,0.875,150,150)"><svg xmlns="http://www.w3.org/2000/svg" version="1.1" xmlns:xlink="http://www.w3.org/1999/xlink" width="800px" height="800px"><svg fill="#000000" width="800px" height="800px" viewBox="0 0 270.92 270.92" style="shape-rendering:geometricPrecision; text-rendering:geometricPrecision; image-rendering:optimizeQuality; fill-rule:evenodd; clip-rule:evenodd" version="1.1" xml:space="preserve" xmlns="http://www.w3.org/2000/svg" xmlns:xlink="http://www.w3.org/1999/xlink">

<defs>

<style type="text/css">
   
    .fil0 {fill:black;fill-rule:nonzero}
   
  </style>

<clipPath id="SvgjsClipPath1126"><rect width="1000" height="1000" x="0" y="0" rx="350" ry="350"></rect></clipPath></defs>

<g id="Layer_x0020_1">

<path class="fil0" d="M176.21 168.27c-18.09,0 -32.82,-14.72 -32.82,-32.82 0,-18.06 14.73,-32.79 32.82,-32.79l62.41 0 0 65.61 -62.41 0zm-1.07 -40.75c-4.37,0 -7.93,3.56 -7.93,7.93 0,4.39 3.56,7.93 7.93,7.93 4.37,0 7.93,-3.54 7.93,-7.93 0,-4.37 -3.56,-7.93 -7.93,-7.93zm43.31 -79.35l-166.76 0c-4.39,0 -7.93,3.56 -7.93,7.93 0,4.37 3.54,7.93 7.93,7.93l166.76 0c11.12,0 20.17,9.05 20.17,20.2l0 2.56 -62.41 0c-26.84,0 -48.69,21.82 -48.69,48.66 0,26.85 21.85,48.69 48.69,48.69l62.41 0 0 2.56c0,11.13 -9.05,20.18 -20.17,20.18l-165.99 0c-11.12,0 -20.17,-9.05 -20.17,-20.18l0 -103.26c0,-4.39 -3.55,-7.94 -7.93,-7.94 -4.39,0 -7.94,3.55 -7.94,7.94l0 103.26c0,19.89 16.17,36.05 36.04,36.05l165.99 0c19.87,0 36.05,-16.16 36.05,-36.05l0 -102.47c0,-19.9 -16.18,-36.06 -36.05,-36.06z"></path>

</g>

</svg></svg></g></g></svg></g></svg>